<svg height="511pt" viewBox="0 -43 511.99834 511" width="511pt" xmlns="http://www.w3.org/2000/svg"><path d="m504.101562 31.574219-20.292968-21.742188c-5.539063-5.929687-13.367188-9.332031-21.480469-9.332031h-228.636719c-8.109375 0-15.9375 3.402344-21.480468 9.335938l-20.277344 21.742187c-5.085938 5.449219-7.890625 12.5625-7.890625 20.03125v13.65625l-150.328125 46.300781c-7.753906 2.390625-14.234375 7.945313-17.777344 15.242188l-12.984375 26.75c-3.257813 6.714844-3.839844 14.339844-1.644531 21.472656l.230468.75c1.625 5.277344 7.214844 8.234375 12.503907 6.613281 5.273437-1.628906 8.234375-7.226562 6.609375-12.503906l-.230469-.75c-.703125-2.273437-.515625-4.707031.523437-6.851563l12.984376-26.746093c1.128906-2.328125 3.195312-4.097657 5.671874-4.863281l218.511719-67.300782c3.429688-1.054687 6.339844.210938 9.222657 1.867188 2.636718 1.507812 15.777343 9.050781 19.714843 11.308594 3.472657 1.992187 7.289063 3.660156 8.570313 7.828124l66.445312 215.734376c.699219 2.257812.507813 4.726562-.523437 6.847656l-12.996094 26.753906c-1.128906 2.324219-3.195313 4.097656-5.671875 4.859375l-218.507812 67.304687c-2.476563.761719-5.183594.457032-7.429688-.832031l-25.777344-14.804687c-2.066406-1.1875-3.589844-3.09375-4.289062-5.367188l-39.789063-129.175781c-1.625-5.277344-7.21875-8.246094-12.5-6.613281-5.277343 1.625-8.238281 7.222656-6.613281 12.5l39.785156 129.175781c1.960938 6.355469 5.96875 11.792969 11.402344 15.53125h-28.457031c-5.523438 0-10 4.476563-10 10s4.476562 10 10 10h288.699219c5.523437 0 10-4.476563 10-10s-4.476563-10-10-10h-148.4375l157.804687-48.605469c7.75-2.386718 14.230469-7.941406 17.773437-15.234375l6.796876-14.003906h88.992187c8.117187 0 15.945313-3.394531 21.480469-9.324219l20.292968-21.742187c5.09375-5.457031 7.898438-12.574219 7.898438-20.042969v-225.726562c0-7.480469-2.808594-14.601563-7.898438-20.042969zm-12.101562 245.769531c0 2.382812-.894531 4.65625-2.519531 6.398438l-20.289063 21.738281c-1.765625 1.890625-4.265625 2.972656-6.859375 2.972656h-80.375c.914063-4.707031.636719-9.644531-.773437-14.226563l-66.449219-215.742187c-1.082031-3.507813-2.828125-6.820313-5.121094-9.6875-2.277343-2.851563-5.089843-5.277344-8.324219-7.132813l-25.796874-14.800781c-6.988282-4.011719-15.5625-4.976562-23.261719-2.601562l-48.1875 14.839843v-7.492187c0-2.386719.890625-4.652344 2.511719-6.390625l20.277343-21.734375c1.769531-1.898437 4.269531-2.984375 6.859375-2.984375h228.636719c2.589844 0 5.089844 1.085938 6.859375 2.980469l20.300781 21.75c1.617188 1.730469 2.511719 4 2.511719 6.386719zm0 0"/><path d="m412.785156 69.925781c-18.683594 0-33.882812 15.199219-33.882812 33.882813s15.199218 33.878906 33.882812 33.878906c18.679688 0 33.878906-15.195312 33.878906-33.878906s-15.199218-33.882813-33.878906-33.882813zm0 47.761719c-7.65625 0-13.882812-6.226562-13.882812-13.878906 0-7.65625 6.226562-13.882813 13.882812-13.882813 7.652344 0 13.878906 6.226563 13.878906 13.882813 0 7.652344-6.226562 13.878906-13.878906 13.878906zm0 0"/><path d="m412.785156 188.71875c-18.683594 0-33.882812 15.199219-33.882812 33.878906 0 18.683594 15.199218 33.882813 33.882812 33.882813 18.679688 0 33.878906-15.199219 33.878906-33.882813 0-18.679687-15.199218-33.878906-33.878906-33.878906zm0 47.761719c-7.65625 0-13.882812-6.226563-13.882812-13.882813 0-7.652344 6.226562-13.878906 13.882812-13.878906 7.652344 0 13.878906 6.226562 13.878906 13.878906 0 7.65625-6.226562 13.882813-13.878906 13.882813zm0 0"/><path d="m69.625 208.613281c14.285156 7.558594 32.535156 3.726563 42.492188-9.007812 8.03125-10.269531 9.449218-24.527344 3.597656-36.175781-5.828125-11.613282-18.1875-19.003907-31.179688-18.625-12.976562.378906-24.84375 8.351562-30.085937 20.226562-6.285157 14.242188-1.746094 31.5 10.738281 40.785156 1.40625 1.046875 2.890625 1.980469 4.4375 2.796875zm3.574219-36.4375c2.660156-5.023437 8.292969-7.964843 13.9375-7.289062 5.527343.664062 10.203125 4.699219 11.695312 10.050781 1.421875 5.078125-.226562 10.667969-4.191406 14.15625-4.628906 4.078125-11.597656 4.554688-16.761719 1.195312-5.933594-3.859374-7.988281-11.855468-4.679687-18.113281zm0 0"/><path d="m174.625 264.164062c13.683594 7.242188 31.101562 4.078126 41.304688-7.570312 9.945312-11.355469 11.140624-28.382812 2.859374-41.007812-7.085937-10.796876-20.140624-16.691407-32.917968-14.921876-12.429688 1.722657-23.082032 10.367188-27.320313 22.179688-5.621093 15.664062 1.410157 33.5625 16.074219 41.320312zm3.574219-36.4375c2.660156-5.023437 8.296875-7.964843 13.9375-7.289062 5.527343.664062 10.203125 4.699219 11.699219 10.050781 1.417968 5.078125-.226563 10.667969-4.191407 14.160157-4.632812 4.074218-11.597656 4.550781-16.765625 1.191406-5.933594-3.859375-7.988281-11.855469-4.679687-18.113282zm0 0"/><path d="m281.179688 320.539062c12.351562 6.53125 27.871093 4.648438 38.324218-4.601562 10.992188-9.726562 14.410156-25.875 8.417969-39.257812-5.71875-12.773438-19.253906-20.894532-33.234375-19.902344-14.027344.996094-26.203125 10.792968-30.1875 24.277344-4.511719 15.273437 2.644531 32.054687 16.679688 39.484374zm3.574218-36.441406c2.933594-5.550781 9.46875-8.488281 15.570313-6.992187 5.726562 1.402343 10.007812 6.425781 10.523437 12.285156.5 5.636719-2.613281 11.152344-7.691406 13.644531-5.003906 2.460938-11.140625 1.652344-15.324219-2.039062-4.742187-4.191406-6.039062-11.304688-3.078125-16.898438zm0 0"/><path d="m396.042969 412.472656c-2.066407-5.035156-8.042969-7.492187-13.0625-5.40625-5.03125 2.085938-7.496094 8.019532-5.410157 13.058594 2.082032 5.027344 8.03125 7.496094 13.0625 5.410156 5.019532-2.085937 7.507813-8.03125 5.410157-13.0625zm0 0"/><path d="m29.90625 224.207031c7.640625-4.984375 4.605469-17.121093-4.320312-18.234375-8.882813-1.109375-14.65625 9.679688-8.796876 16.449219 3.261719 3.765625 8.964844 4.554687 13.117188 1.785156zm0 0"/></svg>