<?xml version="1.0" encoding="UTF-8"?>
<svg width="51px" height="52px" viewBox="0 0 51 52" version="1.1" xmlns="http://www.w3.org/2000/svg" xmlns:xlink="http://www.w3.org/1999/xlink">
    <!-- Generator: Sketch 51.1 (57501) - http://www.bohemiancoding.com/sketch -->
    <title>warehouse-storage-3</title>
    <desc>Created with Sketch.</desc>
    <defs></defs>
    <g id="Wesbite-bright-purple" stroke="none" stroke-width="1" fill="none" fill-rule="evenodd" stroke-linecap="round" stroke-linejoin="round">
        <g id="homepage-new-2-copy-12" transform="translate(-409.000000, -2097.000000)" stroke="#621AAB">
            <g id="Group-24-Copy" transform="translate(175.000000, 1936.000000)">
                <g id="Group-23" transform="translate(0.000000, 55.000000)">
                    <g id="Group-27">
                        <g id="warehouse-storage-3" transform="translate(235.000000, 106.000000)">
                            <path d="M2.25,13.00625 L2.25,42.25625" id="Shape"></path>
                            <path d="M47.25,13.00625 L47.25,42.25625" id="Shape"></path>
                            <path d="M10.125,35.50625 L24.75,35.50625 L24.75,51.25625 L10.125,51.25625 C9.50367966,51.25625 9,50.7525703 9,50.13125 L9,36.63125 C9,36.0099297 9.50367966,35.50625 10.125,35.50625 Z" id="Shape"></path>
                            <path d="M24.75,35.50625 L39.375,35.50625 C39.9963203,35.50625 40.5,36.0099297 40.5,36.63125 L40.5,50.13125 C40.5,50.7525703 39.9963203,51.25625 39.375,51.25625 L24.75,51.25625 L24.75,35.50625 Z" id="Shape"></path>
                            <path d="M16.875,19.75625 L30.375,19.75625 C30.9963203,19.75625 31.5,20.2599297 31.5,20.88125 L31.5,35.50625 L15.75,35.50625 L15.75,20.88125 C15.75,20.2599297 16.2536797,19.75625 16.875,19.75625 Z" id="Shape"></path>
                            <path d="M20.25,19.75625 L27,19.75625 L27,25.38125 C27,26.0025703 26.4963203,26.50625 25.875,26.50625 L21.375,26.50625 C20.7536797,26.50625 20.25,26.0025703 20.25,25.38125 L20.25,19.75625 Z" id="Shape"></path>
                            <path d="M13.5,35.50625 L20.25,35.50625 L20.25,41.13125 C20.25,41.7525703 19.7463203,42.25625 19.125,42.25625 L14.625,42.25625 C14.0036797,42.25625 13.5,41.7525703 13.5,41.13125 L13.5,35.50625 Z" id="Shape"></path>
                            <path d="M29.25,35.50625 L36,35.50625 L36,41.13125 C36,41.7525703 35.4963203,42.25625 34.875,42.25625 L30.375,42.25625 C29.7536797,42.25625 29.25,41.7525703 29.25,41.13125 L29.25,35.50625 Z" id="Shape"></path>
                            <path d="M48.375,13.00625 C48.9963203,13.00625 49.5,12.5025703 49.5,11.88125 L49.5,9.3185 C49.5006015,8.83365265 49.1905039,8.40296151 48.7305,8.24975 L25.425,0.8495 C24.98144,0.708471668 24.50506,0.708471668 24.0615,0.8495 L0.7965,8.26325 C0.319442246,8.40887351 -0.00477226616,8.85123399 -1.87349458e-15,9.35 L-1.87349458e-15,11.88125 C-1.87349458e-15,12.5025703 0.503679656,13.00625 1.125,13.00625 L48.375,13.00625 Z" id="Shape"></path>
                        </g>
                    </g>
                </g>
            </g>
        </g>
    </g>
</svg>